<svg width="185" height="185" viewBox="0 0 185 185" fill="none" xmlns="http://www.w3.org/2000/svg">
<path d="M0 12.1711C0 5.44916 5.44917 0 12.1711 0H172.829C179.551 0 185 5.44917 185 12.1711V172.829C185 179.551 179.551 185 172.829 185H12.1711C5.44916 185 0 179.551 0 172.829V12.1711Z" fill="#FF3033"/>
<path d="M30.2401 134.929C29.687 133.434 29.2721 131.525 28.9956 129.201C28.7743 126.821 28.719 124.386 28.8296 121.895C28.9403 119.35 29.2168 117.136 29.6593 115.254C30.489 114.977 31.291 114.452 32.0654 113.677C32.8397 112.902 33.4758 111.546 33.9736 109.609C34.4714 107.617 34.7203 104.794 34.7203 101.142C34.7203 98.0424 34.5267 95.5796 34.1395 93.7533C33.8077 91.8716 33.3652 90.4327 32.8121 89.4365C32.3143 88.385 31.7611 87.6378 31.1527 87.1951C30.5996 86.7523 30.1018 86.4203 29.6593 86.1989C29.1062 84.3726 28.719 82.2695 28.4978 79.8898C28.3318 77.51 28.3595 58.6728 28.5807 56.3484C28.8573 53.9686 29.3274 50.1446 29.9912 48.5396C32.7568 48.8717 35.8542 49.1484 39.2835 49.3698C42.7128 49.5358 46.5293 49.6188 50.733 49.6188C54.8261 49.6188 58.6702 49.5081 62.2655 49.2867C65.8607 49.01 68.8199 48.761 71.143 48.5396C71.6961 50.0892 72.111 53.7472 72.3875 55.8503C72.7194 57.9533 72.6641 76.2094 72.2216 77.6484C70.9494 78.6446 69.5666 79.9451 68.0732 81.5501C66.6351 83.155 65.28 85.0644 64.0078 87.2781L66.082 88.3573C67.7966 85.4241 69.8432 82.8783 72.2216 80.7199C74.6553 78.5062 77.2549 76.7906 80.0205 75.573C82.8414 74.3555 85.6623 73.7467 88.4832 73.7467C91.6913 73.7467 94.4015 74.0234 96.614 74.5768C98.8265 75.0749 100.679 76.0157 102.173 77.3993C103.666 78.7829 104.828 80.8029 105.657 83.4594C106.432 85.7285 106.791 88.0529 106.736 90.4327C106.681 92.7571 106.515 95.1092 106.238 97.4889C105.962 99.8133 105.823 102.138 105.823 104.462C105.823 107.008 106.072 109.028 106.57 110.522C107.068 111.961 107.704 113.04 108.478 113.76C109.308 114.479 110.11 114.977 110.884 115.254C111.382 117.136 111.659 119.35 111.714 121.895C111.825 124.386 111.769 126.821 111.548 129.201C111.327 131.525 110.94 133.434 110.387 134.929C108.285 134.707 105.74 134.431 102.754 134.099C99.7668 133.822 96.0056 133.683 91.47 133.683C87.377 133.683 83.5605 133.822 80.0205 134.099C76.5359 134.431 73.798 134.707 71.8067 134.929C71.5302 133.434 71.3089 131.47 71.143 129.035C70.9771 126.544 70.9218 123.971 70.9771 121.314C71.0877 118.658 71.3089 116.361 71.6408 114.424V102.968H68.571V114.424C68.9582 116.361 69.1794 118.658 69.2347 121.314C69.3454 123.971 69.3177 126.544 69.1518 129.035C68.9858 131.47 68.7093 133.434 68.3221 134.929C66.9946 134.763 65.5289 134.569 63.9248 134.348C62.3761 134.182 60.4679 134.015 58.2001 133.849C55.9323 133.739 53.1114 133.683 49.7374 133.683C45.589 133.683 41.8555 133.822 38.5368 134.099C35.2734 134.375 32.5079 134.652 30.2401 134.929Z" fill="white"/>
<path d="M132.044 136.423C127.729 136.423 124.217 135.759 121.507 134.431C118.797 133.102 116.805 131.387 115.533 129.284C114.261 127.125 113.625 124.856 113.625 122.476C113.625 119.377 114.289 116.776 115.616 114.673C116.944 112.515 118.492 111.076 120.262 110.356C121.977 112.072 124.245 113.428 127.066 114.424C129.887 115.42 132.597 115.863 135.196 115.752C132.32 114.701 129.278 113.151 126.07 111.103C122.917 109.056 119.958 106.51 117.192 103.466C114.427 100.422 112.159 96.8802 110.389 92.8401C108.675 88.8 107.817 84.2619 107.817 79.2257C107.817 75.5177 108.896 72.3077 111.053 69.5959C113.265 66.8288 116.197 64.6981 119.847 63.2038C123.553 61.7095 127.591 60.9624 131.961 60.9624C134.948 60.9624 137.879 61.3498 140.755 62.1246C143.631 62.8441 146.231 63.9786 148.554 65.5282C150.877 67.0225 152.73 68.9318 154.113 71.2562C155.496 73.5253 156.187 76.1818 156.187 79.2257C156.187 83.8191 155.606 87.9422 154.445 91.5949C153.339 95.2475 151.901 98.5405 150.131 101.474C148.416 104.407 146.674 107.174 144.904 109.775C146.729 110.993 148.195 112.598 149.301 114.59C150.462 116.527 151.043 118.934 151.043 121.812C151.043 126.074 149.439 129.588 146.231 132.355C143.078 135.067 138.349 136.423 132.044 136.423Z" fill="white"/>
</svg>
