<svg width="1520" height="353" viewBox="0 0 1520 353" fill="none" xmlns="http://www.w3.org/2000/svg">
<path d="M150.457 7.18264H202.248V271.806H150.457V162.177H52.1687V271.806H0V7.18264H52.1687V112.276H150.457V7.18264Z" fill="url(#paint0_linear_308_449)"/>
<path d="M246.871 182.968L236.664 82.7894V7.18264H295.259V82.7894L285.43 182.968H246.871ZM288.833 267.27C282.532 273.57 274.971 276.721 266.151 276.721C257.33 276.721 249.769 273.57 243.469 267.27C237.168 260.969 234.018 253.409 234.018 244.588C234.018 235.767 237.168 228.206 243.469 221.906C249.769 215.605 257.33 212.455 266.151 212.455C274.971 212.455 282.532 215.605 288.833 221.906C295.133 228.206 298.283 235.767 298.283 244.588C298.283 253.409 295.133 260.969 288.833 267.27Z" fill="url(#paint1_linear_308_449)"/>
<path d="M518.14 7.18264C554.431 7.18264 584.674 19.9098 608.868 45.3641C633.314 70.8183 645.537 102.195 645.537 139.494C645.537 176.794 633.314 208.171 608.868 233.625C584.674 259.079 554.431 271.806 518.14 271.806H413.046V7.18264H518.14ZM518.14 221.906C541.074 221.906 559.723 214.345 574.089 199.224C588.454 183.85 595.637 163.941 595.637 139.494C595.637 115.048 588.454 95.2645 574.089 80.1432C559.723 64.7698 541.074 57.0831 518.14 57.0831H465.215V221.906H518.14Z" fill="url(#paint2_linear_308_449)"/>
<path d="M710.139 197.334C716.692 221.024 734.46 232.869 763.442 232.869C782.092 232.869 796.205 226.568 805.782 213.967L845.098 236.649C826.448 263.616 798.977 277.099 762.686 277.099C731.435 277.099 706.359 267.648 687.457 248.746C668.556 229.845 659.105 206.028 659.105 177.298C659.105 148.819 668.43 125.129 687.079 106.228C705.729 87.0738 729.671 77.4969 758.906 77.4969C786.628 77.4969 809.436 87.0738 827.33 106.228C845.476 125.381 854.548 149.071 854.548 177.298C854.548 183.598 853.918 190.277 852.658 197.334H710.139ZM709.383 159.53H805.782C803.01 146.677 797.213 137.1 788.392 130.8C779.824 124.499 769.995 121.349 758.906 121.349C745.801 121.349 734.964 124.751 726.395 131.556C717.826 138.108 712.156 147.433 709.383 159.53Z" fill="url(#paint3_linear_308_449)"/>
<path d="M927.742 226.064H1011.67V271.806H862.342V239.295L942.108 128.532H866.123V82.7894H1007.89V115.3L927.742 226.064Z" fill="url(#paint4_linear_308_449)"/>
<path d="M1060.29 60.1074C1052.23 60.1074 1045.17 57.2091 1039.12 51.4126C1033.33 45.3641 1030.43 38.3074 1030.43 30.2427C1030.43 22.178 1033.33 15.1214 1039.12 9.07281C1045.17 3.02427 1052.23 0 1060.29 0C1068.61 0 1075.67 3.02427 1081.46 9.07281C1087.51 15.1214 1090.54 22.178 1090.54 30.2427C1090.54 38.3074 1087.51 45.3641 1081.46 51.4126C1075.67 57.2091 1068.61 60.1074 1060.29 60.1074ZM1036.1 271.806V82.7894H1084.87V271.806H1036.1Z" fill="url(#paint5_linear_308_449)"/>
<path d="M1262.95 82.7894H1310.58V262.734C1310.58 291.968 1300.88 314.272 1281.47 329.645C1262.32 345.019 1239.13 352.706 1211.91 352.706C1191.5 352.706 1173.48 348.799 1157.85 340.987C1142.48 333.174 1130.63 321.707 1122.32 306.585L1163.9 282.769C1173.48 300.411 1189.99 309.232 1213.42 309.232C1228.8 309.232 1240.89 305.199 1249.71 297.135C1258.54 289.07 1262.95 277.603 1262.95 262.734V242.32C1248.58 261.473 1228.42 271.05 1202.46 271.05C1175.75 271.05 1153.32 261.725 1135.17 243.076C1117.28 224.174 1108.33 201.24 1108.33 174.274C1108.33 147.559 1117.4 124.751 1135.55 105.849C1153.69 86.9478 1176 77.4969 1202.46 77.4969C1228.42 77.4969 1248.58 87.0738 1262.95 106.228V82.7894ZM1171.84 211.699C1181.92 221.276 1194.65 226.064 1210.02 226.064C1225.39 226.064 1238 221.276 1247.82 211.699C1257.91 201.87 1262.95 189.395 1262.95 174.274C1262.95 159.404 1257.91 147.181 1247.82 137.604C1238 127.775 1225.39 122.861 1210.02 122.861C1194.65 122.861 1181.92 127.775 1171.84 137.604C1162.01 147.181 1157.1 159.404 1157.1 174.274C1157.1 189.395 1162.01 201.87 1171.84 211.699Z" fill="url(#paint6_linear_308_449)"/>
<path d="M1448.55 77.4969C1469.22 77.4969 1486.23 84.4276 1499.59 98.2888C1513.2 112.15 1520 131.304 1520 155.75V271.806H1471.23V161.798C1471.23 149.197 1467.83 139.62 1461.03 133.068C1454.22 126.263 1445.15 122.861 1433.81 122.861C1421.21 122.861 1411.13 126.767 1403.57 134.58C1396 142.393 1392.22 154.112 1392.22 169.737V271.806H1343.46V82.7894H1392.22V103.959C1404.07 86.3177 1422.85 77.4969 1448.55 77.4969Z" fill="url(#paint7_linear_308_449)"/>
<defs>
<linearGradient id="paint0_linear_308_449" x1="760" y1="0" x2="760" y2="352.706" gradientUnits="userSpaceOnUse">
<stop offset="0.230769" stop-color="white"/>
<stop offset="0.947115" stop-color="#F0F0F0"/>
</linearGradient>
<linearGradient id="paint1_linear_308_449" x1="760" y1="0" x2="760" y2="352.706" gradientUnits="userSpaceOnUse">
<stop offset="0.230769" stop-color="white"/>
<stop offset="0.947115" stop-color="#F0F0F0"/>
</linearGradient>
<linearGradient id="paint2_linear_308_449" x1="760" y1="0" x2="760" y2="352.706" gradientUnits="userSpaceOnUse">
<stop offset="0.230769" stop-color="white"/>
<stop offset="0.947115" stop-color="#F0F0F0"/>
</linearGradient>
<linearGradient id="paint3_linear_308_449" x1="760" y1="0" x2="760" y2="352.706" gradientUnits="userSpaceOnUse">
<stop offset="0.230769" stop-color="white"/>
<stop offset="0.947115" stop-color="#F0F0F0"/>
</linearGradient>
<linearGradient id="paint4_linear_308_449" x1="760" y1="0" x2="760" y2="352.706" gradientUnits="userSpaceOnUse">
<stop offset="0.230769" stop-color="white"/>
<stop offset="0.947115" stop-color="#F0F0F0"/>
</linearGradient>
<linearGradient id="paint5_linear_308_449" x1="760" y1="0" x2="760" y2="352.706" gradientUnits="userSpaceOnUse">
<stop offset="0.230769" stop-color="white"/>
<stop offset="0.947115" stop-color="#F0F0F0"/>
</linearGradient>
<linearGradient id="paint6_linear_308_449" x1="760" y1="0" x2="760" y2="352.706" gradientUnits="userSpaceOnUse">
<stop offset="0.230769" stop-color="white"/>
<stop offset="0.947115" stop-color="#F0F0F0"/>
</linearGradient>
<linearGradient id="paint7_linear_308_449" x1="760" y1="0" x2="760" y2="352.706" gradientUnits="userSpaceOnUse">
<stop offset="0.230769" stop-color="white"/>
<stop offset="0.947115" stop-color="#F0F0F0"/>
</linearGradient>
</defs>
</svg>
